<svg xmlns="http://www.w3.org/2000/svg" viewBox="0 0 1200 630">
  <defs>
    <linearGradient id="bgGradient2" x1="0%" y1="0%" x2="100%" y2="100%">
      <stop offset="0%" style="stop-color:#faf7f0;stop-opacity:1" />
      <stop offset="100%" style="stop-color:#f5f2e8;stop-opacity:1" />
    </linearGradient>
    <linearGradient id="accentGradient2" x1="0%" y1="0%" x2="100%" y2="0%">
      <stop offset="0%" style="stop-color:#a0756d;stop-opacity:1" />
      <stop offset="100%" style="stop-color:#7a8471;stop-opacity:1" />
    </linearGradient>
    <pattern id="dots2" x="0" y="0" width="40" height="40" patternUnits="userSpaceOnUse">
      <circle cx="20" cy="20" r="1.5" fill="#d4cfc4" opacity="0.3"/>
    </pattern>
  </defs>
  <rect width="1200" height="630" fill="url(#bgGradient2)"/>
  <rect width="1200" height="630" fill="url(#dots2)"/>
  <g opacity="0.8">
    <circle cx="300" cy="280" r="50" fill="none" stroke="url(#accentGradient2)" stroke-width="3"/>
    <path d="M 300 250 L 300 230 M 285 265 L 315 265" stroke="url(#accentGradient2)" stroke-width="3" stroke-linecap="round"/>
    <rect x="275" y="360" width="50" height="35" rx="5" fill="none" stroke="#a0756d" stroke-width="2.5"/>
    <rect x="295" y="355" width="10" height="8" fill="#a0756d"/>
    <text x="300" y="430" font-family="'Inter', sans-serif" font-size="22" font-weight="600" fill="#5c5853" text-anchor="middle">CEO</text>
  </g>
  <g opacity="0.8">
    <circle cx="900" cy="280" r="50" fill="none" stroke="url(#accentGradient2)" stroke-width="3"/>
    <path d="M 900 250 L 900 230 M 885 265 L 915 265" stroke="url(#accentGradient2)" stroke-width="3" stroke-linecap="round"/>
    <text x="900" y="375" font-family="monospace" font-size="36" fill="#7a8471" text-anchor="middle">&lt;/&gt;</text>
    <text x="900" y="430" font-family="'Inter', sans-serif" font-size="22" font-weight="600" fill="#5c5853" text-anchor="middle">CTO</text>
  </g>
  <g>
    <line x1="360" y1="280" x2="840" y2="280" stroke="url(#accentGradient2)" stroke-width="4" stroke-dasharray="8,4"/>
    <polygon points="370,280 360,275 360,285" fill="url(#accentGradient2)"/>
    <polygon points="830,280 840,275 840,285" fill="url(#accentGradient2)"/>
    <circle cx="600" cy="280" r="35" fill="#faf7f0" stroke="url(#accentGradient2)" stroke-width="3"/>
    <path d="M 585 275 L 595 285 L 615 265" stroke="url(#accentGradient2)" stroke-width="3" fill="none" stroke-linecap="round" stroke-linejoin="round"/>
  </g>
  <g opacity="0.2" fill="#8b8680">
    <circle cx="150" cy="150" r="20" fill="none" stroke="#8b8680" stroke-width="2"/>
    <circle cx="150" cy="150" r="12" fill="none" stroke="#8b8680" stroke-width="2"/>
    <path d="M 1020 480 L 1040 460 L 1060 470 L 1080 440" stroke="#8b8680" stroke-width="2.5" fill="none" stroke-linecap="round" stroke-linejoin="round"/>
    <circle cx="180" cy="500" r="18" fill="none" stroke="#8b8680" stroke-width="2"/>
    <circle cx="180" cy="500" r="10" fill="none" stroke="#8b8680" stroke-width="2"/>
  </g>
  <g>
    <text x="600" y="140" font-family="'Inter', 'Helvetica Neue', Arial, sans-serif" font-size="64" font-weight="700" fill="#1f1d1b" text-anchor="middle">CEO + CTO</text>
    <text x="600" y="200" font-family="'Inter', 'Helvetica Neue', Arial, sans-serif" font-size="48" font-weight="600" fill="#a0756d" text-anchor="middle">Partnership</text>
  </g>
  <text x="600" y="530" font-family="'Inter', 'Helvetica Neue', Arial, sans-serif" font-size="26" font-weight="400" fill="#5c5853" text-anchor="middle">How Non-Tech CEOs Support Their CTOs</text>
  <rect x="0" y="600" width="1200" height="30" fill="url(#accentGradient2)" opacity="0.3"/>
  <text x="600" y="585" font-family="'Inter', 'Helvetica Neue', Arial, sans-serif" font-size="20" font-weight="500" fill="#8b8680" text-anchor="middle">ajeygore.in</text>
</svg>
